<?xml version="1.0" standalone="no"?>
<!DOCTYPE svg PUBLIC "-//W3C//DTD SVG 20010904//EN"
 "http://www.w3.org/TR/2001/REC-SVG-20010904/DTD/svg10.dtd">
<svg version="1.0" xmlns="http://www.w3.org/2000/svg"
 width="500.000000pt" height="500.000000pt" viewBox="0 0 500.000000 500.000000"
 preserveAspectRatio="xMidYMid meet">
<metadata>
Created by potrace 1.11, written by Peter Selinger 2001-2013
</metadata>
<g transform="translate(0.000000,500.000000) scale(0.100000,-0.100000)"
fill="#000000" stroke="none">
<path d="M2390 4970 c-149 -45 -257 -149 -300 -289 l-18 -56 -123 -31 c-682
-173 -1233 -620 -1536 -1244 -47 -98 -116 -270 -128 -320 -2 -8 -15 -55 -28
-105 -22 -79 -30 -119 -52 -250 -27 -161 -28 -487 -1 -675 70 -484 301 -943
651 -1296 226 -228 464 -389 755 -512 95 -40 301 -107 363 -117 17 -3 39 -8
47 -10 8 -2 29 -7 45 -10 17 -2 41 -7 55 -10 142 -29 499 -41 620 -21 19 3 73
10 120 16 46 7 143 26 215 45 764 193 1378 761 1633 1510 21 62 60 200 68 238
2 12 6 33 9 47 32 161 43 305 40 500 -2 107 -6 206 -8 220 -3 14 -8 47 -12 73
-7 53 -9 64 -26 147 -104 514 -425 1028 -839 1345 -36 28 -67 52 -70 55 -15
16 -187 123 -260 163 -176 94 -342 159 -549 211 l-124 31 -13 43 c-55 187
-212 310 -404 316 -48 2 -95 -3 -130 -14z m-296 -558 c86 -263 408 -378 642
-229 88 55 169 166 189 255 8 39 11 39 137 7 269 -68 577 -223 801 -403 126
-100 259 -238 395 -407 49 -61 142 -218 202 -340 97 -198 172 -431 195 -610 4
-27 9 -52 10 -55 6 -10 18 -204 18 -290 3 -753 -387 -1454 -1036 -1858 -187
-117 -449 -225 -652 -268 -124 -27 -199 -39 -315 -49 -58 -5 -296 -6 -335 -1
-16 2 -61 7 -100 11 -276 25 -629 148 -885 308 -61 39 -199 135 -210 147 -3 3
-34 30 -70 60 -422 359 -696 895 -746 1460 -8 91 -8 313 1 390 8 77 17 141 21
165 89 474 294 863 623 1185 286 280 604 459 1001 564 90 24 93 23 114 -42z"/>
<path d="M2407 3204 c-1 -1 -24 -5 -52 -9 -58 -7 -178 -46 -238 -77 -226 -114
-390 -319 -457 -568 -34 -127 -33 -300 3 -432 106 -391 448 -653 847 -651 324
1 619 182 766 468 49 95 70 156 87 256 49 282 -43 563 -252 769 -165 163 -399
256 -624 248 -43 -1 -79 -3 -80 -4z"/>
</g>
</svg>
