<?xml version="1.0" encoding="utf-8"?><!DOCTYPE svg PUBLIC "-//W3C//DTD SVG 1.1//EN" "http://www.w3.org/Graphics/SVG/1.1/DTD/svg11.dtd"><svg version="1.1" xmlns:dc="http://purl.org/dc/elements/1.1/" xmlns:cc="http://creativecommons.org/ns#" xmlns:svg="http://www.w3.org/2000/svg" xmlns:rdf="http://www.w3.org/1999/02/22-rdf-syntax-ns#" xmlns="http://www.w3.org/2000/svg" xmlns:xlink="http://www.w3.org/1999/xlink" x="0px" y="0px" viewBox="3.268 -2.797 93.465 100" enable-background="new 3.268 -2.797 93.465 100" xml:space="preserve"><path d="M50-2.797c-4.349,0-7.966,3.185-8.653,7.338C19.672,8.6,3.268,27.618,3.268,50.471
	C3.268,76.281,24.19,97.203,50,97.203c25.811,0,46.732-20.922,46.732-46.732c0-22.853-16.404-41.871-38.08-45.929
	C57.966,0.388,54.35-2.797,50-2.797z M41.384,7.499c0.718,4.116,4.294,7.229,8.616,7.229s7.897-3.112,8.616-7.229
	C78.688,11.5,93.812,29.222,93.812,50.471c0,24.197-19.614,43.812-43.812,43.812c-24.196,0-43.812-19.614-43.812-43.812
	C6.188,29.222,21.312,11.5,41.384,7.499z"></path><path d="M67.524,50.471c0,9.679-7.846,17.524-17.524,17.524s-17.524-7.846-17.524-17.524
	c0-9.678,7.846-17.524,17.524-17.524S67.524,40.792,67.524,50.471z"></path></svg>